<svg xmlns="http://www.w3.org/2000/svg" viewBox="0 0 1880.13 1030.08"><defs><style>.cls-1{fill:#0b0754;}.cls-2{fill:#30008e;}.cls-3{fill:#7920fa;}.cls-4{fill:#996fdd;}.cls-5{fill:#31a336;}.cls-6{fill:#73cb51;}.cls-7{fill:#caa9ff;}.cls-8{fill:#efefef;}.cls-9{fill:#fff;}.cls-10{fill:#184655;}.cls-11{fill:#9bc1f9;}.cls-12{fill:#92b5f9;}.cls-13{fill:#bed1f9;}.cls-14{fill:#4500b2;}.cls-15{fill:#7c9af2;}.cls-16{fill:#dde8fe;}.cls-17{fill:#f7cc7f;}.cls-18{fill:#fb9390;}.cls-19{fill:#ef7f7f;}</style></defs><g id="Layer_1" data-name="Layer 1"><path class="cls-1" d="M987.39,348.13c-3.36-20.32-6.85-40.72-26.46-56.25-15.87-12.57-35.48-15.34-54.52-9.64-53.95,16.14-20.55,47.2-91.88,81.58-73.77,35.55-57.81,103.86-36.13,125,103.75,101.12,195.19-17.15,201.84-48.43C985.19,417.11,989.56,361.21,987.39,348.13Z" transform="translate(-14.69 -8.95)"/><polygon class="cls-2" points="163.38 647.21 195.98 833.31 344.05 833.31 344.05 647.21 163.38 647.21"/><polygon class="cls-2" points="137.23 929.08 114.15 1020.05 125.69 1020.05 172.55 931.95 137.23 929.08"/><polygon class="cls-2" points="1578.84 929.08 1601.92 1024.04 1590.38 1024.04 1543.53 932.07 1578.84 929.08"/><polygon class="cls-2" points="1408.8 929.08 1431.88 1024.04 1420.34 1024.04 1373.48 932.07 1408.8 929.08"/><path class="cls-3" d="M397.49,575.71,326.14,842.26H1587.63l29-324.8H473.38A78.56,78.56,0,0,0,397.49,575.71Z" transform="translate(-14.69 -8.95)"/><path class="cls-4" d="M1519.22,598.31l-45.7,244h114.11l29-324.8h0A99.08,99.08,0,0,0,1519.22,598.31Z" transform="translate(-14.69 -8.95)"/><polygon class="cls-3" points="114.15 647.21 118.95 935.19 234.02 935.19 170.17 647.21 114.15 647.21"/><polygon class="cls-5" points="1333.51 635.62 1310.19 634.92 1321.15 833.33 1347.87 833.58 1333.51 635.62"/><path class="cls-5" d="M1315.55,659.27V632.62a36,36,0,0,0-71.94,0v26.65a2,2,0,0,1-4,0V632.62a39.93,39.93,0,0,1,79.86,0v26.65A2,2,0,0,1,1315.55,659.27Z" transform="translate(-14.69 -8.95)"/><polygon class="cls-6" points="1321.15 833.33 1162.43 833.33 1171.24 635.62 1310.19 634.92 1321.15 833.33"/><polygon class="cls-5" points="1238.47 814.03 1162.43 833.33 1321.15 833.33 1238.47 814.03"/><path class="cls-5" d="M1291.47,663V636.35a36,36,0,1,0-71.93,0V663a2,2,0,0,1-4,0V636.35a39.93,39.93,0,0,1,79.86,0V663A2,2,0,0,1,1291.47,663Z" transform="translate(-14.69 -8.95)"/><path class="cls-7" d="M1228.92,723.29a36.33,36.33,0,1,0,35.3-37.35A36.33,36.33,0,0,0,1228.92,723.29Z" transform="translate(-14.69 -8.95)"/><path class="cls-8" d="M1284.82,727.47a19.43,19.43,0,0,1-38.84,1.1Z" transform="translate(-14.69 -8.95)"/><polygon class="cls-7" points="161.12 833.31 139.38 893.08 1420.79 893.08 1420.79 833.31 161.12 833.31"/><polygon class="cls-4" points="1274.99 833.31 1255.97 893.08 1420.79 893.08 1420.79 833.31 1274.99 833.31"/><polygon class="cls-4" points="1453.4 647.21 1431.66 935.19 118.95 935.19 118.25 893.08 1338.38 893.08 1377.6 647.21 1453.4 647.21"/><polygon class="cls-2" points="1453.4 647.21 1629.99 647.21 1608.26 935.19 1431.66 935.19 1453.4 647.21"/><path class="cls-3" d="M1235,235.53a51.86,51.86,0,1,1-51.86-51.85A51.85,51.85,0,0,1,1235,235.53Z" transform="translate(-14.69 -8.95)"/><path class="cls-9" d="M1197.28,231.35l-11-13.25a7.6,7.6,0,0,0-10.7-1l-35,29.17,20.76,24.92,35-29.17A7.6,7.6,0,0,0,1197.28,231.35Zm-14.09.52a4.27,4.27,0,1,1,6,.55A4.27,4.27,0,0,1,1183.19,231.87Z" transform="translate(-14.69 -8.95)"/><path class="cls-9" d="M1188.12,226.69c.16,0,16.79-3.23,23-8.4,5.37-4.48,5.75-13.49-4.27-12.42-7.85.83-14.41,12.7-16.87,17.76a1.42,1.42,0,0,1-2.56-1.24c3.31-6.82,10.19-18.4,19.13-19.35,12.53-1.34,14.27,10.87,6.39,17.43-6.77,5.65-23.57,8.88-24.28,9A1.42,1.42,0,0,1,1188.12,226.69Z" transform="translate(-14.69 -8.95)"/><path class="cls-5" d="M999.93,61.83c1.43,7.34,9.36,45.28,23.27,56.89.57.48,19.86,4.35,20.44,4.83,15.62,12.68,13.85,15.33,13.48,16.86-.31,1.27-1.33,4.68-3.17,4.77-3.32.17-13.55-2.14-41.65-10.31a1.71,1.71,0,0,1-1.18-1.23c-6.91-28.74-19.17-41.16-20.55-35.48-7.14,29.37-6.61,30.26-9,29.69-1.13-.47-4.23-.29-3.88-2.54,1.17-7.49,6.09-39.95,4-43.43C979.36,78,981,59.13,998.4,60.46A1.69,1.69,0,0,1,999.93,61.83Z" transform="translate(-14.69 -8.95)"/><polygon class="cls-10" points="290.63 929.08 267.56 1015.34 279.09 1015.34 325.95 931.8 290.63 929.08"/><polygon class="cls-11" points="654.81 233.05 645.57 240.37 632.14 226.8 617.31 235.84 605.6 227.33 601.29 233.26 616.95 244.64 631.01 236.07 644.97 250.19 658.88 239.17 654.81 233.05"/><path class="cls-6" d="M1215.59,331.7c-5.67-1.46-10.49-5.85-10.77-9.79s3.72-5.76,8.94-4.08,10,6.07,10.76,9.79S1221.25,333.17,1215.59,331.7Z" transform="translate(-14.69 -8.95)"/><path class="cls-6" d="M702.64,114.54c-5.67-1.47-10.49-5.85-10.77-9.79s3.72-5.77,8.94-4.08,10,6.07,10.76,9.79S708.3,116,702.64,114.54Z" transform="translate(-14.69 -8.95)"/><path class="cls-12" d="M1185,485.53l-9-7.92-11.66,3a1.65,1.65,0,0,1-1.93-2.25l4.75-11.06-6.43-10.17a1.66,1.66,0,0,1,1.55-2.53l12,1.09,7.69-9.25a1.66,1.66,0,0,1,2.89.69l2.66,11.73,11.17,4.46a1.65,1.65,0,0,1,.24,3l-10.34,6.15-.78,12A1.65,1.65,0,0,1,1185,485.53Z" transform="translate(-14.69 -8.95)"/><path class="cls-6" d="M874.34,48.68l-9.05-7.92-11.66,3a1.65,1.65,0,0,1-1.93-2.25l4.74-11.06L850,20.24a1.65,1.65,0,0,1,1.55-2.53l12,1.09,7.69-9.25a1.65,1.65,0,0,1,2.88.69L876.79,22,888,26.43a1.65,1.65,0,0,1,.23,2.95l-10.33,6.16-.78,12A1.66,1.66,0,0,1,874.34,48.68Z" transform="translate(-14.69 -8.95)"/><path class="cls-6" d="M1132.38,328.33l-9.05-7.93-11.66,3a1.66,1.66,0,0,1-1.93-2.26l4.74-11.05-6.42-10.18a1.66,1.66,0,0,1,1.55-2.53l12,1.1,7.69-9.25a1.65,1.65,0,0,1,2.88.69l2.67,11.73,11.17,4.45a1.66,1.66,0,0,1,.24,3l-10.34,6.16-.78,12A1.66,1.66,0,0,1,1132.38,328.33Z" transform="translate(-14.69 -8.95)"/><path class="cls-13" d="M1140.72,397.84c21.52-4,37.14-13.17,50.12-29.91-2-.39-9-1.13-10.13-1.12,11.39-17.72,12.37-33.5,8.16-51.3-8.31,1.58-19.91,2.56-27.89,4.61,3.89,11.95,8.87,34.32.61,49a35.86,35.86,0,0,1-7.59-3.43C1153.49,376,1146.42,387.46,1140.72,397.84Z" transform="translate(-14.69 -8.95)"/><path class="cls-3" d="M1225.91,414.1a9.27,9.27,0,0,1,7.81,3.61c2.62,3.6.93,8.62-3.13,11.57-4.7,3.41-12.72,4.07-23.93-1.2-1.55-12.29,1.56-19.72,6.26-23.13,4.06-2.95,9.35-3,12,.6A9.3,9.3,0,0,1,1225.91,414.1Z" transform="translate(-14.69 -8.95)"/><polygon class="cls-13" points="1077.26 34.65 1074.91 21.02 1080.38 20.07 1081.69 27.62 1092.34 24.6 1093.85 29.95 1077.26 34.65"/><path class="cls-6" d="M303.89,654.61,272.32,795.49a38.38,38.38,0,0,0,37.45,46.77H502.25c17.8,0,23.38-12.24,27.46-29.57l25.57-137.51c4-17.08-2.14-47.21-8.06-47.33l-205.11-3.21A38.36,38.36,0,0,0,303.89,654.61Z" transform="translate(-14.69 -8.95)"/><path class="cls-5" d="M558.33,631.32c-11.64-7-32.58-3.43-35.46,11.41L484.2,842.26h46.67l37.67-185.08C570.64,646.87,566.44,636.22,558.33,631.32Z" transform="translate(-14.69 -8.95)"/><path class="cls-6" d="M520.11,719l-20.73,92.55A25.2,25.2,0,0,0,524,842.26H650.42c11.7,0,15.36-8,18-19.42l16.8-90.34c2.64-11.22-1.41-31-5.29-31.09l-134.75-2.12A25.22,25.22,0,0,0,520.11,719Z" transform="translate(-14.69 -8.95)"/><path class="cls-5" d="M687.26,703.69c-7.64-4.62-21.4-2.26-23.29,7.49L638.56,842.26h30.66L694,720.67C695.35,713.9,692.59,706.91,687.26,703.69Z" transform="translate(-14.69 -8.95)"/><path class="cls-5" d="M1582,780a6.78,6.78,0,1,0,7.52-5.94A6.79,6.79,0,0,0,1582,780Z" transform="translate(-14.69 -8.95)"/><path class="cls-5" d="M1548.07,790.19a6.78,6.78,0,1,1-9.55-.8A6.78,6.78,0,0,1,1548.07,790.19Z" transform="translate(-14.69 -8.95)"/><path class="cls-5" d="M1546.71,798.84a4.38,4.38,0,0,1-6.49-5.75,4.17,4.17,0,0,1,.84-.94,4.34,4.34,0,0,1,3.2-1A4.39,4.39,0,0,1,1546.71,798.84Z" transform="translate(-14.69 -8.95)"/><path class="cls-5" d="M1578.62,779.78a6.78,6.78,0,1,1-6.79-6.76A6.77,6.77,0,0,1,1578.62,779.78Z" transform="translate(-14.69 -8.95)"/><path class="cls-5" d="M1608.72,791.43a6.77,6.77,0,1,1-.86-9.54A6.76,6.76,0,0,1,1608.72,791.43Z" transform="translate(-14.69 -8.95)"/><path class="cls-5" d="M1557.49,869.62a6.78,6.78,0,1,0-9.1,3A6.77,6.77,0,0,0,1557.49,869.62Z" transform="translate(-14.69 -8.95)"/><path class="cls-5" d="M1555.84,867.86a4.38,4.38,0,1,1-1.69-6.32,4.37,4.37,0,0,1,1.69,6.32Z" transform="translate(-14.69 -8.95)"/><path class="cls-5" d="M1534.78,846.68a6.78,6.78,0,1,0-8.9-3.54A6.78,6.78,0,0,0,1534.78,846.68Z" transform="translate(-14.69 -8.95)"/><path class="cls-5" d="M1537.06,842.48a4.38,4.38,0,1,1-5.39-6.43,4.38,4.38,0,0,1,5.39,6.43Z" transform="translate(-14.69 -8.95)"/><path class="cls-5" d="M1532.14,814.5a6.77,6.77,0,1,0-4.55-8.43A6.77,6.77,0,0,0,1532.14,814.5Z" transform="translate(-14.69 -8.95)"/><path class="cls-5" d="M1536.32,849.72a6.78,6.78,0,1,1-2.45,9.27A6.78,6.78,0,0,1,1536.32,849.72Z" transform="translate(-14.69 -8.95)"/><path class="cls-5" d="M1539.69,859a4.38,4.38,0,1,1,4.91-6.44A4.39,4.39,0,0,1,1539.69,859Z" transform="translate(-14.69 -8.95)"/><path class="cls-5" d="M1550.79,788.16a6.78,6.78,0,1,0,1.94-9.38A6.79,6.79,0,0,0,1550.79,788.16Z" transform="translate(-14.69 -8.95)"/><path class="cls-5" d="M1559.47,789.31a4.38,4.38,0,1,1,1.25-1.25A4.38,4.38,0,0,1,1559.47,789.31Z" transform="translate(-14.69 -8.95)"/><path class="cls-5" d="M1531.36,817.83a6.77,6.77,0,1,1-7.83,5.52A6.76,6.76,0,0,1,1531.36,817.83Z" transform="translate(-14.69 -8.95)"/><path class="cls-5" d="M1530.82,828.89a4.38,4.38,0,1,1,5.06-3.57A4.39,4.39,0,0,1,1530.82,828.89Z" transform="translate(-14.69 -8.95)"/><path class="cls-5" d="M1579.42,822.87l8.27-35.51-1.25-.29-8.62,37-4.38-37.73-1.27.14,4.21,36.22-16.5-32.51-1.14.58,17.19,33.87-27.61-26.09-.88.93,26.5,25-33.54-14.3-.5,1.17,34.94,14.91-37.92-2.23-.07,1.28,36.39,2.13-34.88,10.6.37,1.23,36.35-11-30.49,22.67.77,1,29.25-21.76-19.91,30.54,1.07.7,44.77-68.31-1.07-.71Z" transform="translate(-14.69 -8.95)"/><rect class="cls-5" x="1643.84" y="786.15" width="5.48" height="171.19" transform="matrix(0.55, -0.84, 0.84, 0.55, 0.39, 1762.44)"/><path class="cls-5" d="M1651,606.81a11.47,11.47,0,1,0,16-2.63A11.46,11.46,0,0,0,1651,606.81Z" transform="translate(-14.69 -8.95)"/><path class="cls-5" d="M1592.29,594.1a11.47,11.47,0,1,1-13.48-9A11.47,11.47,0,0,1,1592.29,594.1Z" transform="translate(-14.69 -8.95)"/><path class="cls-5" d="M1646.08,603.73a11.47,11.47,0,1,1-4.53-15.57A11.47,11.47,0,0,1,1646.08,603.73Z" transform="translate(-14.69 -8.95)"/><path class="cls-5" d="M1681.09,645.68a11.47,11.47,0,1,1,6.55-14.84A11.47,11.47,0,0,1,1681.09,645.68Z" transform="translate(-14.69 -8.95)"/><path class="cls-5" d="M1541.1,719.44a11.47,11.47,0,1,0-15.94-3A11.46,11.46,0,0,0,1541.1,719.44Z" transform="translate(-14.69 -8.95)"/><path class="cls-5" d="M1526.3,666.84A11.47,11.47,0,1,0,1516,654.3,11.47,11.47,0,0,0,1526.3,666.84Z" transform="translate(-14.69 -8.95)"/><path class="cls-5" d="M1548.77,617a11.47,11.47,0,1,0,.18-16.21A11.47,11.47,0,0,0,1548.77,617Z" transform="translate(-14.69 -8.95)"/><path class="cls-5" d="M1526.07,672.61a11.47,11.47,0,1,1-11.22,11.71A11.46,11.46,0,0,1,1526.07,672.61Z" transform="translate(-14.69 -8.95)"/><path class="cls-5" d="M1598,593.32A11.47,11.47,0,1,0,1608.56,581,11.47,11.47,0,0,0,1598,593.32Z" transform="translate(-14.69 -8.95)"/><path class="cls-5" d="M1544.89,621.31a11.47,11.47,0,1,1-16.13,1.76A11.48,11.48,0,0,1,1544.89,621.31Z" transform="translate(-14.69 -8.95)"/><path class="cls-5" d="M1613.08,666.9l40.2-44.5-1.61-1.46L1610,665.31,1633,609.19l-2-.82-23.39,55,2.15-59.58-2.16-.08-4,59.08-17.85-56.09-2.06.65,18.71,58.81-37.93-48.68-1.71,1.33,38.8,49.8L1548,635.12l-1.16,1.83L1599,670l-60.34-12.91-.46,2.11,61.45,13.15-62.3,8.88.29,2.14,61.16-8.22L1544.25,704l1,1.92,122.31-64.45-1-1.92Z" transform="translate(-14.69 -8.95)"/><rect class="cls-5" x="1666.65" y="650.75" width="9.27" height="289.78" transform="translate(-192.88 862.11) rotate(-27.79)"/><path class="cls-3" d="M1728,928.92s93.86-69.67,106.72-99.69-13.66-26.63-13.66-26.63,37.9-53.7,27.84-71.44-31,4.91-31,4.91,17.58-72.64,2.29-76.68c-28.47-7.52-51.83,70.65-51.83,70.65s2.1-32.45-15.73-28.08c-26.87,6.59-12.66,76.47-12.66,76.47s-8.56-12.39-23.3-.6C1690.22,799,1728,928.92,1728,928.92Z" transform="translate(-14.69 -8.95)"/><path class="cls-14" d="M1712.69,779.63c14.74-11.78,27.28-1.2,27.28-1.2s-14.21-69.88,12.66-76.47c17.83-4.37,15.78,26.7,15.78,26.7s23.31-76.79,51.78-69.27l-92.9,269.31C1723.14,911.88,1688,799.39,1712.69,779.63Z" transform="translate(-14.69 -8.95)"/><path class="cls-7" d="M1728.12,926.5s63.81,1,98.31-7.93a45.32,45.32,0,0,0,17.72-8.84c19.85-16.67-4.5-18-4.5-18s46-24.4,45.29-40.67-16.25-13-16.25-13,31.77-28.46,25.25-42.26c-10-21.2-55.46,19-55.46,19s3.47-16.12-10.62-19.49c-21.25-5.08-42.82,55.34-42.82,55.34s10.17-27.22-4.43-24.19C1754.41,831.93,1728.12,926.5,1728.12,926.5Z" transform="translate(-14.69 -8.95)"/><path class="cls-3" d="M1724.12,931.86s-85.36-72.85-95.78-102.2S1643,805.15,1643,805.15s-32.8-53.39-22.16-69.66,29.19,6.56,29.19,6.56-12.32-70.18,2.47-73.1c27.54-5.43,44.25,77.82,44.25,77.82s4.51-26.72,18.29-20.75c20.46,8.88,6.56,61.05,6.56,61.05s9.29-24.53,22.6-12.42C1768,796.38,1724.12,931.86,1724.12,931.86Z" transform="translate(-14.69 -8.95)"/><path class="cls-7" d="M1748.18,770.23c-15.43-9.26-23,2.72-23,2.72s14.19-51.5-11-59.4c-16.7-5.24-16.67,25.77-16.67,25.77s-17.49-75.8-45-70.37l72.06,261.86C1729.48,915.06,1766.56,781.26,1748.18,770.23Z" transform="translate(-14.69 -8.95)"/><path class="cls-7" d="M1715.53,921.4s-93.78,0-106.82-1.48,1.36-13.16,1.36-13.16-29.17,1.06-33.62-6,7.47-9.89,7.47-9.89-29.06-8.42-27.67-14.61c2.58-11.5,34.67-4,34.67-4s-11.92-5.79-7.07-11.17c7.3-8.11,38.51,14,38.51,14s-11.72-22.16-4.8-25C1630,845,1715.53,921.4,1715.53,921.4Z" transform="translate(-14.69 -8.95)"/><path class="cls-6" d="M1647.83,1027H1803.9c19.88-18.16,32-43.16,31.55-70.59a84.49,84.49,0,0,0-9-37.79l-201.23,2.26a89.63,89.63,0,0,0-8.32,39.14C1617.3,986.1,1629,1009.66,1647.83,1027Z" transform="translate(-14.69 -8.95)"/><polygon class="cls-5" points="525.61 887.93 505.56 887.47 514.98 1017.83 537.95 1018 525.61 887.93"/><path class="cls-5" d="M512.23,906.7V889.2c0-13-13.87-23.64-30.92-23.64s-30.92,10.61-30.92,23.64v17.5c0,1.72-3.4,1.73-3.4,0V889.2c0-14.47,15.4-26.24,34.32-26.24s34.32,11.77,34.32,26.24v17.5C515.63,908.42,512.23,908.43,512.23,906.7Z" transform="translate(-14.69 -8.95)"/><polygon class="cls-6" points="514.98 1017.83 378.56 1017.83 386.13 887.93 505.56 887.47 514.98 1017.83"/><polygon class="cls-5" points="443.91 1005.16 378.56 1017.83 514.98 1017.83 443.91 1005.16"/><path class="cls-5" d="M491.53,909.16V891.65c0-13-13.87-23.64-30.91-23.64s-30.92,10.61-30.92,23.64v17.51c0,1.72-3.4,1.72-3.4,0V891.65c0-14.47,15.39-26.24,34.32-26.24s34.32,11.77,34.32,26.24v17.51C494.94,910.88,491.53,910.88,491.53,909.16Z" transform="translate(-14.69 -8.95)"/><polygon class="cls-12" points="616.79 378.69 596.75 378.23 606.16 508.59 629.14 508.75 616.79 378.69"/><path class="cls-15" d="M603.42,397.46V380c0-13-13.87-23.63-30.92-23.63s-30.92,10.6-30.92,23.63v17.51c0,1.72-3.4,1.72-3.4,0V380c0-14.46,15.4-26.23,34.32-26.23s34.32,11.77,34.32,26.23v17.51C606.82,399.18,603.42,399.18,603.42,397.46Z" transform="translate(-14.69 -8.95)"/><polygon class="cls-13" points="606.16 508.59 469.74 508.59 477.31 378.69 596.75 378.23 606.16 508.59"/><polygon class="cls-12" points="535.1 495.91 469.74 508.59 606.16 508.59 535.1 495.91"/><path class="cls-15" d="M582.72,399.91V382.4c0-13-13.87-23.63-30.92-23.63s-30.91,10.6-30.91,23.63v17.51c0,1.72-3.41,1.72-3.41,0V382.4c0-14.46,15.4-26.23,34.32-26.23s34.32,11.77,34.32,26.23v17.51C586.12,401.63,582.72,401.63,582.72,399.91Z" transform="translate(-14.69 -8.95)"/><polygon class="cls-13" points="389.81 820.05 366.49 819.35 377.44 1017.75 404.17 1018 389.81 820.05"/><path class="cls-12" d="M371.85,843.69V817a36,36,0,0,0-71.94,0v26.65a2,2,0,0,1-4,0V817a39.93,39.93,0,0,1,79.86,0v26.65A2,2,0,0,1,371.85,843.69Z" transform="translate(-14.69 -8.95)"/><polygon class="cls-16" points="377.44 1017.75 218.73 1017.75 227.54 820.05 366.49 819.35 377.44 1017.75"/><polygon class="cls-13" points="294.77 998.46 218.73 1017.75 377.44 1017.75 294.77 998.46"/><path class="cls-12" d="M347.77,847.42V820.77a36,36,0,1,0-71.94,0v26.65a2,2,0,0,1-4,0V820.77a39.93,39.93,0,0,1,79.86,0v26.65A2,2,0,0,1,347.77,847.42Z" transform="translate(-14.69 -8.95)"/><polygon class="cls-17" points="748.71 459.68 773.64 515.11 802.2 511.71 792.05 452.18 748.71 459.68"/><path class="cls-5" d="M1158.45,982.34l.69,44.74h2.5s3-31.74,4.73-34.18S1158.45,982.34,1158.45,982.34Z" transform="translate(-14.69 -8.95)"/><path class="cls-6" d="M1159.14,1027.08h-2.84s1.38-27.3,0-34.18-4-17.06-4-17.06l6.19,6.5Z" transform="translate(-14.69 -8.95)"/><path class="cls-5" d="M1164.84,947.47c-.59.07-3.89,3.89-5,8.75a35.2,35.2,0,0,1-4.45,9.86s20.15,38.77,24.45,47.1,37.24,1.25,37.24,1.25.83-3.06-5.14-6.94-13.06-11.81-19.45-23.07S1172.34,946.49,1164.84,947.47Z" transform="translate(-14.69 -8.95)"/><path class="cls-6" d="M1211.94,1007.49s-11.26,7.22-21.26,5.14S1177.2,990.81,1173,977.2s-9.59-25.29-8.89-27.51l.69-2.22s-8.89,7.08-12.09,16.81a20,20,0,0,0,.67,14.88,35.53,35.53,0,0,0,7.67,10.54c7.64,7.64,11.39,18.82,12.22,27.54s1.25,9.14,2,9.84,52.27.55,56.57-.15S1224.27,1010,1211.94,1007.49Z" transform="translate(-14.69 -8.95)"/><path class="cls-5" d="M1237.43,974.35l6.88,52.87h4.87s.67-31.74,2.36-34.18S1237.43,974.35,1237.43,974.35Z" transform="translate(-14.69 -8.95)"/><path class="cls-6" d="M1292.11,1007.77c-10.21-.43-21.45-16.75-29.38-30.43-7.14-12.32-11-18.13-17.37-25.49,0,0-4.24,2.84-7.44,12.57a20,20,0,0,0,.67,14.89c1.62,3.66,3.71,7.82,7.67,10.53,15.5,10.63,24.39,37.08,25.08,37.78s41.36.15,45.66-.55S1319.07,1008.88,1292.11,1007.77Z" transform="translate(-14.69 -8.95)"/><path class="cls-18" d="M771.22,639.74c-.49.29,4.78,6.27,9.28,12.08s13.83,12.72,12.39,13.77c-1.12.81-7.35-2.8-12.34-7.1.91,1.55,1.12,2.54.09,2.47-4.26-.27-20.06-13.48-30.52-31.14s-63.3-131.36-44.26-138.46c7-2.6,66.2-18.3,81.64-22.32l7.5,53H741.82c3.9,33,16,72.84,16.72,74.92,1.83,5.63,11.06,8.72,12.78,9.91,9.4,6.54,21.36,15.16,21.06,19.7s-8.1-2.81-14.36-5,.83,23.72,19.29,35.57-7.27,5.06-11.93-.78S772,639.26,771.22,639.74Z" transform="translate(-14.69 -8.95)"/><path class="cls-18" d="M1132.36,449.49c-.8-.9-1.43.3-1.94,2.51-.9-7-4.15-14.9-5.62-15.16-1.82-.32,1.56,11.18.56,18.48s-1.17,15.9-1.75,15.74c-.93-.24.59-10.13,1.48-17.57s-12.41-35.06-7.67-13.44-9.13,44.76-12.09,38.7-3.24-16.82-6.79-13.88.59,17.43.86,29c0,1.33,1.35,4.94,3,9.15a5.55,5.55,0,0,1-1.56,6.21l-50.88,39.2-28.66-45.1L977,529.48s37.46,65.39,72.55,60.43c14-2,62.33-54.45,77.35-81.45C1141.77,481.75,1135.75,453.33,1132.36,449.49Z" transform="translate(-14.69 -8.95)"/><path class="cls-5" d="M978.73,448.62C993.23,455.54,1037,522,1037,522l-41.77,40.92-27.58-36S960.88,440.1,978.73,448.62Z" transform="translate(-14.69 -8.95)"/><path class="cls-5" d="M866.67,441.42s-9,.33-31.71,7.61c-24.88,8-71.56,19.6-71.56,19.6l24.93,55.43,83.29-9.9S879.74,441.42,866.67,441.42Z" transform="translate(-14.69 -8.95)"/><path class="cls-6" d="M982.65,654.78c-22.35,11.87-103.1,10-103.1,10-2.13-22.36-22.62-91.39-27.6-139.47-6.26-33.46,7.91-33.87,14.72-83.84.05-.34,34.68-2.75,34.68-2.75l36,.89s31.36,2.52,41.33,9.06c.69.45,4.66,56.92,1.56,96.92-2.12,27.28-5.21,49.3-5,67.33C975.56,639.08,982.65,654.78,982.65,654.78Z" transform="translate(-14.69 -8.95)"/><path class="cls-14" d="M877.9,654l-83.42,67.57s155.07,81,208.86,65.66L1018,713.89l-35.36-59.11Z" transform="translate(-14.69 -8.95)"/><path class="cls-2" d="M862.94,743.23s-59.38-9.08-95,19.56-58.68,85.92-40.52,95,71.25-1.4,113.16-16.77S897.16,751.61,862.94,743.23Z" transform="translate(-14.69 -8.95)"/><path class="cls-19" d="M730.22,802.6c-5,10.69-.57,20.92,7.62,26.52,10.19,7,150.43,27.48,198.4,34,37.4,5.08,93.64,17,109,19.82s69.51,3.78,70.55,2.09c2.87-4.62-3.49-13.27-14.67-16.07s-18.86-.69-40.51-15.36-30-2.8-35.62.69-250.78-78.93-250.78-78.93S741.27,778.73,730.22,802.6Z" transform="translate(-14.69 -8.95)"/><path class="cls-14" d="M866.43,667.09S757.91,718,735.05,732.72c-42.9,27.68-18.47,107.33-12.39,119.94,0,0,12.45-71,51.56-77.3l7-33.53Z" transform="translate(-14.69 -8.95)"/><path class="cls-7" d="M975.4,680.36s-153-41.21-210.26,11.88c0,0-26.83,24.65-17,54,5.54,16.62,26.13,29.13,26.13,29.13S827.31,730,849,737.64s105.7,67,129.92,64.27C1016.61,797.71,1060.62,711.1,975.4,680.36Z" transform="translate(-14.69 -8.95)"/><path class="cls-18" d="M879.42,748.56c-16.27-8.19-54.9-26.29-80.75-18.6s-36.07,28.57-24.45,45.4c6.82,9.87,232.61,77.54,243.09,83.83s53.79,15.36,67.06,15.36,37.72,4.89,39.82,1.4-9.78-15.37-24.45-18.16-34.93-22.36-43.31-29.34-11.13-13.4-26.55-3.49C1022.45,829.73,917.1,767.53,879.42,748.56Z" transform="translate(-14.69 -8.95)"/><path class="cls-6" d="M986.77,515.68c1.19,35.33-33.89,45-73,45S843,543.39,843,522.05,869,472,908,470.66C957,469,985.85,488.62,986.77,515.68Z" transform="translate(-14.69 -8.95)"/><path class="cls-18" d="M910.47,380.49s-.82,5.9-2.09,14c-2.33,14.87-3.51,39.28-6.5,46.7-2.63,6.53,1.94,53.31,20.72,53.31,21.63,0,19.72-41.48,20.4-49.51s2.82-35.2,4.24-53.35l1.33-17Z" transform="translate(-14.69 -8.95)"/><path class="cls-19" d="M947.31,391.35c.73-9.61,1.26-16.65,1.26-16.65l-38.1,5.79s-1,5.55-2,13.39C923.9,402.84,937.78,400,947.31,391.35Z" transform="translate(-14.69 -8.95)"/><path class="cls-18" d="M922.42,294.27a43.25,43.25,0,0,0-24.29,17.53C888.86,326,882.5,367.61,913,387.05s54.28-8.06,54.68-34.88S962.36,289.54,922.42,294.27Z" transform="translate(-14.69 -8.95)"/><path class="cls-18" d="M974.71,343.77c-2.61,6.47-7.78,10.49-11.55,9s-4.71-8-2.11-14.47,7.78-10.49,11.55-9S977.31,337.3,974.71,343.77Z" transform="translate(-14.69 -8.95)"/><path class="cls-1" d="M926.93,293.39s-19.15,42.94-36,46.78-16.57,25.44-16.57,25.44.37-49.9,16.13-61.34S926.93,293.39,926.93,293.39Z" transform="translate(-14.69 -8.95)"/><path class="cls-18" d="M898,356.82c2,6.4.17,12.71-4.16,14.09s-9.49-2.71-11.52-9.11-.17-12.72,4.16-14.09S896,350.41,898,356.82Z" transform="translate(-14.69 -8.95)"/><path class="cls-18" d="M1136.48,444.32c-.79-.9-5.55,5.47-6.06,7.68-.9-7-4.15-14.9-5.62-15.16-1.82-.32,1.56,11.18.56,18.48s-1.17,15.9-1.75,15.74c-.93-.24.59-10.13,1.48-17.57s-12.41-35.06-7.67-13.44-9.13,44.76-12.09,38.7-3.24-16.82-6.79-13.88.59,17.43.86,29c0,1.33,1.35,4.94,3,9.15a5.56,5.56,0,0,1-1.56,6.21l18.63,11.22c3-4.44,5.55-8.49,7.47-11.95C1141.77,481.75,1139.87,448.16,1136.48,444.32Z" transform="translate(-14.69 -8.95)"/><path class="cls-14" d="M1133.86,411.43l-13.68,80.89.9.35c4.38,1.39,7.22-1,7.53-2.46l12.74-69.6C1141.92,417.55,1142.55,412.19,1133.86,411.43Z" transform="translate(-14.69 -8.95)"/><path class="cls-3" d="M1113.27,413.64l-9.08,68.08a4.14,4.14,0,0,0,2.38,4.31l13.9,6.42a4.15,4.15,0,0,0,5.83-3.14l11.31-73.11a4.14,4.14,0,0,0-3.75-4.77l-16.13-1.37A4.14,4.14,0,0,0,1113.27,413.64Z" transform="translate(-14.69 -8.95)"/><path class="cls-13" d="M745,349.24l-78.83,7.28A11.18,11.18,0,0,1,654,346.41h0l101.11-9.35h0A11.19,11.19,0,0,1,745,349.24Z" transform="translate(-14.69 -8.95)"/><path class="cls-13" d="M743.09,298.78c-8.82.82-15.48,7.14-14.83,14.1s8.34,12,17.16,11.15,15.48-7.15,14.84-14.11S751.91,298,743.09,298.78Zm1.81,19.56c-5.59.51-10.61-2.22-11-6s4.09-7.37,9.68-7.89,10.6,2.22,11,6S750.49,317.82,744.9,318.34Z" transform="translate(-14.69 -8.95)"/><path class="cls-13" d="M739,287.86c2.93,31.72-13,59.12-35.58,61.21s-43.27-21.93-46.21-53.65c-.37-4,17.64-9,40.22-11.07S738.66,283.83,739,287.86Z" transform="translate(-14.69 -8.95)"/><path class="cls-12" d="M739,287.86c.37,4-17.63,9-40.22,11.07s-41.19.52-41.57-3.51,17.64-9,40.22-11.07S738.66,283.83,739,287.86Z" transform="translate(-14.69 -8.95)"/><path class="cls-3" d="M820.25,109.19A12.92,12.92,0,0,1,819,96.93a13.26,13.26,0,0,1-11.31-5.49,12.72,12.72,0,0,1-1.74-3.5c-4.32,1.42-9.49-.36-12.53-4.66a12.47,12.47,0,0,1-1.82-3.79,45.75,45.75,0,1,0,46,33.45C831.31,115.9,824,114.47,820.25,109.19Zm-16.61,30.37a17.57,17.57,0,1,1,4.21-24.48A17.58,17.58,0,0,1,803.64,139.56Z" transform="translate(-14.69 -8.95)"/><path class="cls-16" d="M765.3,124.09h0a2.32,2.32,0,0,1-3.23-.55l-2.67-3.79a2.31,2.31,0,0,1,.56-3.23h0a2.33,2.33,0,0,1,3.23.56l2.67,3.78A2.31,2.31,0,0,1,765.3,124.09Z" transform="translate(-14.69 -8.95)"/><rect class="cls-16" x="808.72" y="104.76" width="4.63" height="7.12" rx="1.78" transform="translate(761.71 916.88) rotate(-95.18)"/><rect class="cls-16" x="765.92" y="136.94" width="4.63" height="7.55" rx="1.78" transform="translate(1413.71 549.09) rotate(-158.08)"/><rect class="cls-16" x="820.73" y="122.65" width="4.63" height="7.55" rx="1.78" transform="translate(1524.27 542.74) rotate(-158.02)"/><path class="cls-16" d="M776.64,102.77l.08.16a2.22,2.22,0,0,1-.93,3l-2.74,1.44a2.22,2.22,0,0,1-3-.93l-.08-.15a2.23,2.23,0,0,1,.93-3l2.74-1.45A2.23,2.23,0,0,1,776.64,102.77Z" transform="translate(-14.69 -8.95)"/><path class="cls-16" d="M822.54,138.54l.09.16a2.23,2.23,0,0,1-.93,3L819,143.16a2.23,2.23,0,0,1-3-.93l-.08-.16a2.22,2.22,0,0,1,.93-3l2.73-1.44A2.22,2.22,0,0,1,822.54,138.54Z" transform="translate(-14.69 -8.95)"/><rect class="cls-16" x="791.88" y="91.55" width="4.63" height="7.55" rx="1.78" transform="translate(1554.66 283.72) rotate(-172.56)"/><path class="cls-16" d="M804,150.75l.17,0a2.23,2.23,0,0,1,1.92,2.5l-.4,3.07a2.22,2.22,0,0,1-2.49,1.92l-.18,0a2.22,2.22,0,0,1-1.92-2.49l.4-3.07A2.23,2.23,0,0,1,804,150.75Z" transform="translate(-14.69 -8.95)"/><path class="cls-16" d="M787.25,151h0a2.32,2.32,0,0,1-1.2,3.05l-4.25,1.85a2.31,2.31,0,0,1-3-1.2h0a2.33,2.33,0,0,1,1.2-3.05l4.25-1.85A2.32,2.32,0,0,1,787.25,151Z" transform="translate(-14.69 -8.95)"/><path class="cls-6" d="M989.69,59.34c1.43,7.34,9.36,45.29,23.27,56.89.57.48,19.86,4.36,20.44,4.83,15.62,12.69,13.85,15.33,13.48,16.86-.32,1.28-1.33,4.68-3.17,4.77-3.32.17-13.55-2.14-41.65-10.31a1.71,1.71,0,0,1-1.18-1.23C994,102.41,981.71,90,980.33,95.67c-7.14,29.37-6.61,30.26-9,29.69-1.13-.47-4.23-.29-3.88-2.54,1.17-7.49,6.09-39.95,4-43.43-2.34-3.85-.74-22.75,16.7-21.42A1.69,1.69,0,0,1,989.69,59.34Z" transform="translate(-14.69 -8.95)"/><path class="cls-6" d="M753.29,211.33H740.81v-13a3.78,3.78,0,0,0-7.56,0v13H720.76a3.62,3.62,0,0,0,0,7.24h12.49v13.18a3.78,3.78,0,0,0,7.56,0V218.57h12.48a3.62,3.62,0,1,0,0-7.24Z" transform="translate(-14.69 -8.95)"/><path class="cls-12" d="M910.14,90.64H897.65v-13a3.78,3.78,0,0,0-7.55,0v13H877.61a3.63,3.63,0,0,0,0,7.25H890.1v13.18a3.78,3.78,0,0,0,7.55,0V97.89h12.49a3.63,3.63,0,0,0,0-7.25Z" transform="translate(-14.69 -8.95)"/><path class="cls-13" d="M1115.34,141.49h-12.49v-13a3.78,3.78,0,0,0-7.55,0v13h-12.49a3.62,3.62,0,1,0,0,7.24h12.49v13.19a3.78,3.78,0,0,0,7.55,0V148.73h12.49a3.62,3.62,0,1,0,0-7.24Z" transform="translate(-14.69 -8.95)"/><path class="cls-16" d="M1830.34,1027H22.15c-3.84,0-7.19,2.43-7.44,5.64-.27,3.52,3.05,6.44,7.19,6.44H1830.34c4,0,7.21-2.7,7.21-6h0C1837.55,1029.65,1834.32,1027,1830.34,1027Z" transform="translate(-14.69 -8.95)"/></g></svg>