<svg id="Camada_1" data-name="Camada 1" xmlns="http://www.w3.org/2000/svg" xmlns:xlink="http://www.w3.org/1999/xlink" viewBox="0 0 512 512"><defs><style>.cls-1{fill:url(#Gradiente_sem_nome_11);}.cls-2{fill:url(#Gradiente_sem_nome_14);}</style><linearGradient id="Gradiente_sem_nome_11" x1="255.92" y1="2.07" x2="255.92" y2="514.03" gradientTransform="matrix(1, 0, 0, -1, 0.06, 514.07)" gradientUnits="userSpaceOnUse"><stop offset="0.01" stop-color="#7920fa"/><stop offset="1" stop-color="#9857ff"/></linearGradient><linearGradient id="Gradiente_sem_nome_14" x1="256" y1="77.02" x2="256" y2="439.01" gradientTransform="matrix(1, 0, 0, -1, 0, 514.02)" gradientUnits="userSpaceOnUse"><stop offset="0" stop-color="#e1d2ff"/><stop offset="1" stop-color="#efe9ff"/></linearGradient></defs><path class="cls-1" d="M507.14,276.49a45.62,45.62,0,0,0,0-41l-6.71-13.29A15.33,15.33,0,0,1,499,212.9l2.27-14.71a45.62,45.62,0,0,0-12.66-39l-10.49-10.57a15.4,15.4,0,0,1-4.29-8.41l-2.38-14.7a45.64,45.64,0,0,0-23.66-32.93L434.85,85c-.25-.15-.5-.29-.76-.42a15.34,15.34,0,0,1-6.68-6.68l-6.8-13.24C414.19,52.19,401.1,43,386.45,40.59l-14.69-2.38a15.4,15.4,0,0,1-8.41-4.29L352.78,23.43a45.65,45.65,0,0,0-39-12.66L299.1,13a15.37,15.37,0,0,1-9.33-1.47L276.49,4.86a45.62,45.62,0,0,0-41,0l-13.28,6.71A15.36,15.36,0,0,1,212.9,13l-14.71-2.27a45.62,45.62,0,0,0-39,12.66L148.65,33.92a15.4,15.4,0,0,1-8.41,4.29l-14.7,2.38C110.9,43,97.81,52.19,91.39,64.67l-6.8,13.24a15.4,15.4,0,0,1-6.68,6.68l-13.24,6.8C52.19,97.81,43,110.9,40.59,125.55L38.2,140.24a15.33,15.33,0,0,1-4.29,8.41L23.43,159.22a45.62,45.62,0,0,0-12.66,39L13,212.9a15.26,15.26,0,0,1-1.48,9.32l-6.7,13.29a45.62,45.62,0,0,0,0,41l6.7,13.28A15.3,15.3,0,0,1,13,299.1l-2.27,14.71a45.62,45.62,0,0,0,12.66,39l10.49,10.57a15.4,15.4,0,0,1,4.29,8.41l2.38,14.69c2.37,14.65,11.6,27.74,24.08,34.16l13.24,6.8a15.4,15.4,0,0,1,6.68,6.68l6.8,13.24c6.42,12.48,19.51,21.71,34.16,24.08l14.69,2.39a15.39,15.39,0,0,1,8.41,4.28l10.57,10.49a45.66,45.66,0,0,0,39,12.66L212.9,499a15.3,15.3,0,0,1,9.33,1.48l13.28,6.7a45.62,45.62,0,0,0,41,0l13.28-6.7A15.3,15.3,0,0,1,299.1,499l14.71,2.27a45.66,45.66,0,0,0,39-12.66l10.57-10.49a15.4,15.4,0,0,1,8.41-4.29l14.69-2.38a45.6,45.6,0,0,0,32.93-23.66l7.61-12.9c.15-.25.29-.5.42-.76a15.29,15.29,0,0,1,6.68-6.68l13.23-6.81a45.6,45.6,0,0,0,24.09-33.15l2.38-14.69a15.4,15.4,0,0,1,4.29-8.41c.16-.16,10.75-11.83,10.75-11.83a45.65,45.65,0,0,0,12.4-38.71L499,299.1a15.37,15.37,0,0,1,1.47-9.33Z"/><path class="cls-2" d="M256,75C156.2,75,75,156.2,75,256S156.2,437,256,437,437,355.8,437,256,355.8,75,256,75Zm70,173.42L248.43,326a25.84,25.84,0,0,1-36.57,0L186,300.14a25.86,25.86,0,0,1,36.56-36.57l7.58,7.57,59.28-59.28A25.86,25.86,0,1,1,326,248.43Z"/></svg>