<svg id="Camada_1" data-name="Camada 1" xmlns="http://www.w3.org/2000/svg" xmlns:xlink="http://www.w3.org/1999/xlink" viewBox="0 0 512 512"><defs><style>.cls-1{fill:url(#Gradiente_sem_nome_5);}.cls-2{fill:url(#Gradiente_sem_nome_6);}</style><linearGradient id="Gradiente_sem_nome_5" x1="255.92" y1="766.32" x2="255.92" y2="254.27" gradientTransform="translate(0.06 -253.93)" gradientUnits="userSpaceOnUse"><stop offset="0" stop-color="#00b59c"/><stop offset="1" stop-color="#9cffac"/></linearGradient><linearGradient id="Gradiente_sem_nome_6" x1="256" y1="691.32" x2="256" y2="329.32" gradientTransform="translate(0 -253.98)" gradientUnits="userSpaceOnUse"><stop offset="0" stop-color="#c3ffe8"/><stop offset="1" stop-color="#f0fff4"/></linearGradient></defs><path class="cls-1" d="M507.14,276.83a45.6,45.6,0,0,0,0-41l-6.71-13.29a15.33,15.33,0,0,1-1.43-9.3l2.27-14.71a45.62,45.62,0,0,0-12.66-39L478.12,149a15.33,15.33,0,0,1-4.29-8.41l-2.38-14.7a45.64,45.64,0,0,0-23.66-32.93l-12.94-7.58c-.25-.15-.5-.29-.76-.42a15.4,15.4,0,0,1-6.68-6.68L420.61,65c-6.42-12.47-19.51-21.66-34.16-24.07l-14.69-2.38a15.37,15.37,0,0,1-8.41-4.29L352.78,23.77a45.66,45.66,0,0,0-39-12.66L299.1,13.34a15.36,15.36,0,0,1-9.33-1.47L276.49,5.2a45.6,45.6,0,0,0-41,0l-13.28,6.71a15.36,15.36,0,0,1-9.31,1.43l-14.71-2.27a45.62,45.62,0,0,0-39,12.66L148.65,34.26a15.37,15.37,0,0,1-8.41,4.29l-14.7,2.38C110.9,43.34,97.81,52.53,91.39,65l-6.8,13.24a15.4,15.4,0,0,1-6.68,6.68l-13.24,6.8C52.19,98.15,43,111.24,40.59,125.89L38.2,140.58A15.3,15.3,0,0,1,33.91,149L23.43,159.56a45.62,45.62,0,0,0-12.66,39L13,213.24a15.25,15.25,0,0,1-1.48,9.32l-6.7,13.29a45.6,45.6,0,0,0,0,41l6.7,13.28A15.3,15.3,0,0,1,13,299.44l-2.27,14.71a45.62,45.62,0,0,0,12.66,39l10.49,10.57a15.37,15.37,0,0,1,4.29,8.41l2.38,14.69c2.37,14.65,11.6,27.74,24.08,34.16l13.24,6.8a15.4,15.4,0,0,1,6.68,6.68l6.8,13.24c6.42,12.48,19.51,21.71,34.16,24.08l14.69,2.39a15.42,15.42,0,0,1,8.41,4.28l10.57,10.49a45.66,45.66,0,0,0,39,12.66l14.72-2.26a15.36,15.36,0,0,1,9.33,1.48l13.28,6.7a45.6,45.6,0,0,0,41,0l13.28-6.7a15.3,15.3,0,0,1,9.31-1.48l14.71,2.27a45.66,45.66,0,0,0,39-12.66l10.57-10.49a15.43,15.43,0,0,1,8.41-4.29l14.69-2.38a45.59,45.59,0,0,0,32.93-23.66l7.61-12.9c.15-.25.29-.5.42-.76a15.29,15.29,0,0,1,6.68-6.68L447.35,421a45.6,45.6,0,0,0,24.09-33.15l2.38-14.69a15.37,15.37,0,0,1,4.29-8.41c.16-.16,10.75-11.83,10.75-11.83a45.63,45.63,0,0,0,12.4-38.71L499,299.44a15.36,15.36,0,0,1,1.47-9.33Z"/><path class="cls-2" d="M256,75.34c-99.8,0-181,81.2-181,181s81.2,181,181,181,181-81.2,181-181S355.8,75.34,256,75.34Zm70,173.42-77.57,77.58a25.84,25.84,0,0,1-36.54,0l0,0L186,300.48a25.86,25.86,0,0,1,36.56-36.57l7.58,7.57,59.28-59.28A25.86,25.86,0,0,1,326,248.77h0Z"/></svg>