<svg id="Camada_1" data-name="Camada 1" xmlns="http://www.w3.org/2000/svg" xmlns:xlink="http://www.w3.org/1999/xlink" viewBox="0 0 512 512"><defs><style>.cls-1{fill:url(#Gradiente_sem_nome_3);}.cls-2{fill:url(#Gradiente_sem_nome_2);}</style><linearGradient id="Gradiente_sem_nome_3" x1="255.98" y1="76.06" x2="255.98" y2="588.02" gradientTransform="matrix(1, 0, 0, -1, 0, 588.07)" gradientUnits="userSpaceOnUse"><stop offset="0" stop-color="#fd5900"/><stop offset="1" stop-color="#ffde00"/></linearGradient><linearGradient id="Gradiente_sem_nome_2" x1="255.98" y1="151.04" x2="255.98" y2="513.04" gradientTransform="matrix(1, 0, 0, -1, 0, 588.07)" gradientUnits="userSpaceOnUse"><stop offset="0" stop-color="#ffe59a"/><stop offset="1" stop-color="#ffffd5"/></linearGradient></defs><path class="cls-1" d="M507.14,276.49a45.62,45.62,0,0,0,0-41l-6.71-13.29A15.33,15.33,0,0,1,499,212.9l2.27-14.71a45.62,45.62,0,0,0-12.66-39l-10.49-10.57a15.4,15.4,0,0,1-4.29-8.41l-2.38-14.7a45.64,45.64,0,0,0-23.66-32.93L434.85,85c-.25-.15-.5-.29-.76-.42a15.34,15.34,0,0,1-6.68-6.68l-6.8-13.24C414.19,52.19,401.1,43,386.45,40.59l-14.69-2.38a15.4,15.4,0,0,1-8.41-4.29L352.78,23.43a45.65,45.65,0,0,0-39-12.66L299.1,13a15.37,15.37,0,0,1-9.33-1.47L276.49,4.86a45.62,45.62,0,0,0-41,0l-13.28,6.71A15.36,15.36,0,0,1,212.9,13l-14.71-2.27a45.62,45.62,0,0,0-39,12.66L148.65,33.92a15.4,15.4,0,0,1-8.41,4.29l-14.7,2.38C110.9,43,97.81,52.19,91.39,64.67l-6.8,13.24a15.4,15.4,0,0,1-6.68,6.68l-13.24,6.8C52.19,97.81,43,110.9,40.59,125.55L38.2,140.24a15.33,15.33,0,0,1-4.29,8.41L23.43,159.22a45.62,45.62,0,0,0-12.66,39L13,212.9a15.26,15.26,0,0,1-1.48,9.32l-6.7,13.29a45.62,45.62,0,0,0,0,41l6.7,13.28A15.3,15.3,0,0,1,13,299.1l-2.27,14.71a45.62,45.62,0,0,0,12.66,39l10.49,10.57a15.4,15.4,0,0,1,4.29,8.41l2.38,14.69c2.37,14.65,11.6,27.74,24.08,34.16l13.24,6.8a15.4,15.4,0,0,1,6.68,6.68l6.8,13.24c6.42,12.48,19.51,21.71,34.16,24.08l14.69,2.39a15.39,15.39,0,0,1,8.41,4.28l10.57,10.49a45.66,45.66,0,0,0,39,12.66L212.9,499a15.3,15.3,0,0,1,9.33,1.48l13.28,6.7a45.62,45.62,0,0,0,41,0l13.28-6.7A15.3,15.3,0,0,1,299.1,499l14.71,2.27a45.66,45.66,0,0,0,39-12.66l10.57-10.49a15.4,15.4,0,0,1,8.41-4.29l14.69-2.38a45.6,45.6,0,0,0,32.93-23.66l7.61-12.9c.15-.25.29-.5.42-.76a15.29,15.29,0,0,1,6.68-6.68l13.23-6.81a45.6,45.6,0,0,0,24.09-33.15l2.38-14.69a15.4,15.4,0,0,1,4.29-8.41c.16-.16,10.75-11.83,10.75-11.83a45.65,45.65,0,0,0,12.4-38.71L499,299.1a15.37,15.37,0,0,1,1.47-9.33Z"/><path class="cls-2" d="M256,75C156.62,75,75,156.64,75,256s81.65,181,181,181,181-81.66,181-181S355.36,75,256,75ZM360.56,214.63l-30,120A15,15,0,0,1,316,346H196a15,15,0,0,1-14.56-11.37l-30-120a15,15,0,0,1,27-12c4.1,6,19,23.37,32.55,23.37,2.48,0,10.18-5.78,18.11-23.66C236.22,186.3,241,165.67,241,151a15,15,0,0,1,30,0c0,14.68,4.78,35.31,11.89,51.35C290.82,220.22,298.52,226,301,226c14,0,29.24-18.43,32.55-23.37a15,15,0,0,1,27,12Z"/></svg>