<svg id="Camada_1" data-name="Camada 1" xmlns="http://www.w3.org/2000/svg" viewBox="0 0 384 266"><defs><style>.cls-1{fill:#306fc5;}.cls-2{fill:#2d78bc;}.cls-3{fill:#fff;}</style></defs><rect class="cls-1" width="384" height="266" rx="23.5"/><path class="cls-2" d="M75.82,104.81,70.27,91.1l-5.51,13.71M198,99.35a7.38,7.38,0,0,1-4,.71h-9.84V92.43h10a8.29,8.29,0,0,1,3.84.61,3.17,3.17,0,0,1,1.7,3A3.53,3.53,0,0,1,198,99.35m70.21,5.46L262.57,91.1,257,104.81ZM137.3,119.63H129l0-26.91-11.75,26.91h-7.11L98.33,92.7v26.93H81.86L78.74,112H61.87l-3.14,7.66h-8.8L64.44,85.27h12L90.25,117.8V85.27h13.22l10.6,23.31,9.74-23.31H137.3Zm33.11,0H143.34V85.27h27.07v7.16h-19v6.19H170v7h-18.5v6.86h19Zm38.16-25.1a9.66,9.66,0,0,1-5.71,9.15,9.37,9.37,0,0,1,4,2.9c1.15,1.71,1.35,3.23,1.35,6.3v6.75H200l0-4.33c0-2.07.2-5-1.28-6.7-1.18-1.21-3-1.47-5.9-1.47h-8.7v12.5H176V85.27h18.64c4.14,0,7.19.11,9.8,1.64s4.11,3.78,4.11,7.62m13,25.1h-8.26V85.27h8.26Zm95.9,0H305.94L290.59,93.84v25.79h-16.5L270.94,112H254.11l-3.06,7.66h-9.48c-3.94,0-8.93-.88-11.75-3.8s-4.33-6.87-4.33-13.12c0-5.09.88-9.76,4.37-13.43,2.62-2.74,6.72-4,12.3-4H250v7.36h-7.68c-3,0-4.62.45-6.23,2-1.39,1.45-2.33,4.18-2.33,7.78s.72,6.33,2.23,8.07c1.24,1.36,3.51,1.77,5.64,1.77h3.64l11.42-27h12.14l13.71,32.5V85.27h12.34l14.24,23.93V85.27h8.3ZM49.84,126.38H63.68l3.12-7.63h7l3.12,7.63h27.23v-5.84l2.44,5.86H120.7l2.43-5.94v5.92h67.69l0-12.53h1.31c.92,0,1.18.12,1.18,1.65v10.88h35v-2.92a27.39,27.39,0,0,0,13,2.92H256l3.16-7.63h7l3.09,7.63H297.6v-7.26l4.3,7.26h22.74V78.46h-22.5v5.66L299,78.46H275.89v5.66L273,78.46H241.8c-5.21,0-9.8.74-13.52,2.8v-2.8H206.76v2.8c-2.36-2.13-5.57-2.8-9.15-2.8H119l-5.27,12.37-5.42-12.37H83.49v5.66l-2.72-5.66H59.65l-9.81,22.78L38.58,126.38Zm0,0"/><path class="cls-3" d="M75.82,107.61l-5.55-13.7-5.51,13.7M198,102.16a7.47,7.47,0,0,1-4,.7h-9.84V95.23h10a8.16,8.16,0,0,1,3.84.62,3.16,3.16,0,0,1,1.7,3,3.54,3.54,0,0,1-1.67,3.27m70.21,5.45-5.61-13.7L257,107.61ZM137.3,122.44H129l0-26.92-11.75,26.92h-7.11L98.33,95.5v26.94H81.86l-3.12-7.67H61.87l-3.14,7.67h-8.8L64.44,88.07h12l13.77,32.54V88.07h13.22l10.6,23.31,9.74-23.31H137.3Zm33.11,0H143.34V88.07h27.07v7.16h-19v6.2H170v7h-18.5v6.85h19Zm38.16-25.11a9.68,9.68,0,0,1-5.71,9.16,9.37,9.37,0,0,1,4,2.9c1.15,1.7,1.35,3.23,1.35,6.29v6.76H200l0-4.34c0-2.07.2-5-1.28-6.69-1.18-1.21-3-1.47-5.9-1.47h-8.7v12.5H176V88.07h18.64c4.14,0,7.19.11,9.8,1.65s4.11,3.78,4.11,7.61m13,25.11h-8.26V88.08h8.26Zm95.9,0H305.94l-15.35-25.8v25.8h-16.5l-3.15-7.67H254.11l-3.06,7.67h-9.48c-3.94,0-8.93-.89-11.75-3.81s-4.33-6.86-4.33-13.11c0-5.09.88-9.76,4.37-13.43,2.62-2.75,6.72-4,12.3-4H250v7.37h-7.68c-3,0-4.62.44-6.23,2-1.39,1.46-2.33,4.19-2.33,7.79s.72,6.33,2.23,8.06c1.24,1.37,3.51,1.78,5.64,1.78h3.64l11.42-27h12.14l13.71,32.5V88.08h12.34L309.13,112V88.08h8.3ZM49.84,129.18H63.68l3.12-7.63h7l3.12,7.63h27.23v-5.83l2.44,5.86H120.7l2.43-5.94v5.91h67.69l0-12.52h1.31c.92,0,1.18.12,1.18,1.65v10.87h35v-2.91a27.4,27.4,0,0,0,13,2.91H256l3.16-7.63h7l3.09,7.63H297.6v-7.25l4.3,7.25h22.74V81.27h-22.5v5.66L299,81.27H275.89v5.66L273,81.27H241.8c-5.21,0-9.8.73-13.52,2.79V81.27H206.76v2.79c-2.36-2.12-5.57-2.79-9.15-2.79H119l-5.27,12.37-5.42-12.37H83.49v5.66l-2.72-5.66H59.65l-9.81,22.78L38.58,129.18Zm0,0"/><path class="cls-2" d="M342.82,158.78v-22h-20.3c-4.52,0-7.81,1.1-10.14,2.8v-2.8H290.19c-3.55,0-7.71.89-9.67,2.8v-2.8H240.89v2.8c-3.15-2.3-8.48-2.8-10.93-2.8H203.82v2.8c-2.49-2.44-8-2.8-11.42-2.8H163.16l-6.7,7.34-6.26-7.34H106.5v47.92h42.87l6.9-7.45,6.49,7.45,26.43,0V173.46h2.59c3.51.06,7.64-.08,11.29-1.68v12.93h21.8v-12.5h1c1.34,0,1.47.06,1.47,1.42v11.08H293.6c4.2,0,8.6-1.1,11-3.07v3.07h21c4.37,0,8.64-.62,11.89-2.21v-.06a17.32,17.32,0,0,0,5.3-23.66Zm-150.68,7.66H182V178H166.28l-10-11.37L145.93,178H113.82V143.62h32.6l10,11.26,10.31-11.26h25.9c6.43,0,13.66,1.81,13.66,11.31s-7,11.51-14.12,11.51Zm48.78-1.55c1.15,1.67,1.31,3.24,1.35,6.27V178h-8.14v-4.29c0-2.07.2-5.13-1.31-6.72-1.19-1.23-3-1.53-5.95-1.53h-8.66V178h-8.14V143.62h18.71c4.1,0,7.09.19,9.75,1.62a8.07,8.07,0,0,1,4.17,7.63A9.6,9.6,0,0,1,237,162a8.91,8.91,0,0,1,4,2.89Zm33.32-14.16h-19V157h18.52v7H255.26v6.83l19,0V178H247.19V143.62h27.05ZM294.88,178H279.1V170.6h15.72c1.54,0,2.63-.2,3.31-.85a3,3,0,0,0,1-2.23,3,3,0,0,0-1-2.28,4.19,4.19,0,0,0-2.89-.76c-7.57-.26-17.07.23-17.07-10.64,0-5,3.09-10.22,11.59-10.22H306v7.31H291.11a5.48,5.48,0,0,0-3.25.62,2.89,2.89,0,0,0,.56,5,9.24,9.24,0,0,0,3.15.39l4.37.12c4.4.11,7.42.88,9.26,2.76,1.57,1.65,2.42,3.74,2.42,7.28,0,7.39-4.56,10.84-12.74,10.84Zm41.72-3.32c-2.14,2.19-5.58,3.32-10.07,3.32H310.87V170.6h15.59c1.55,0,2.63-.2,3.29-.85a3,3,0,0,0,.95-2.23,2.83,2.83,0,0,0-1-2.28,4,4,0,0,0-2.85-.76c-7.62-.26-17.11.23-17.11-10.64,0-5,3.12-10.22,11.63-10.22h15.83v7.31H322.75a5.6,5.6,0,0,0-3.28.62,2.68,2.68,0,0,0-1.18,2.47,2.59,2.59,0,0,0,1.77,2.56,9.19,9.19,0,0,0,3.12.39l4.4.12c4.43.11,7.39.88,9.19,2.76a4.6,4.6,0,0,1,.76.85c-.1-.12-.19-.23-.28-.36a11.28,11.28,0,0,1-.65,14.31ZM142.21,150.73l8.87,10-9.26,10.08H121.89V164h17.8v-7h-17.8v-6.24Zm19.31,10.12L174,147.31v27.53Zm36-5.91c0,3-1.94,4.53-5.05,4.53H182v-8.74h10.58c2.92,0,4.95,1.2,4.95,4.21Zm36.17-.5a3.69,3.69,0,0,1-1.68,3.29,7.66,7.66,0,0,1-4,.71H218.2v-7.71h10a7.88,7.88,0,0,1,3.87.62,3.25,3.25,0,0,1,1.68,3.09Zm0,0"/><path class="cls-3" d="M342.82,161.59v-22h-20.3c-4.52,0-7.81,1.1-10.14,2.8v-2.8H290.19c-3.55,0-7.71.88-9.67,2.8v-2.8H240.89v2.8c-3.15-2.3-8.48-2.8-10.93-2.8H203.82v2.8c-2.49-2.44-8-2.8-11.42-2.8H163.16l-6.7,7.33-6.26-7.33H106.5v47.92h42.87l6.9-7.45,6.49,7.45,26.43,0V176.27h2.59c3.51,0,7.64-.09,11.29-1.69v12.93h21.8V175h1c1.34,0,1.47.06,1.47,1.41v11.08H293.6c4.2,0,8.6-1.09,11-3.06v3.06h21c4.37,0,8.64-.62,11.89-2.2v-.06a17.32,17.32,0,0,0,5.3-23.66Zm-150.68,7.66H182v11.52H166.28l-10-11.37-10.37,11.37H113.82V146.43h32.6l10,11.25,10.31-11.25h25.9c6.43,0,13.66,1.8,13.66,11.31s-7,11.51-14.12,11.51Zm48.78-1.56c1.15,1.68,1.31,3.24,1.35,6.27v6.81h-8.14v-4.3c0-2.06.2-5.12-1.31-6.72-1.19-1.23-3-1.53-5.95-1.53h-8.66v12.55h-8.14V146.43h18.71c4.1,0,7.09.18,9.75,1.62a8,8,0,0,1,4.17,7.62,9.63,9.63,0,0,1-5.74,9.14,8.82,8.82,0,0,1,4,2.88Zm33.32-14.16h-19v6.25h18.52v7H255.26v6.84l19,0v7.13H247.19V146.43h27.05Zm20.64,27.24H279.1v-7.36h15.72c1.54,0,2.63-.2,3.31-.85a3.07,3.07,0,0,0,1-2.24,3,3,0,0,0-1-2.28,4.24,4.24,0,0,0-2.89-.76c-7.57-.25-17.07.24-17.07-10.63,0-5,3.09-10.22,11.59-10.22H306v7.31H291.11a5.49,5.49,0,0,0-3.25.61,2.9,2.9,0,0,0,.56,5,9.27,9.27,0,0,0,3.15.38l4.37.13c4.4.1,7.42.88,9.26,2.76,1.57,1.65,2.42,3.74,2.42,7.27,0,7.39-4.56,10.84-12.74,10.84Zm41.72-3.31c-2.14,2.18-5.58,3.31-10.07,3.31H310.87v-7.36h15.59c1.55,0,2.63-.2,3.29-.85a3.06,3.06,0,0,0,.95-2.24,2.85,2.85,0,0,0-1-2.28,4.09,4.09,0,0,0-2.85-.76c-7.62-.25-17.11.24-17.11-10.63,0-5,3.12-10.22,11.63-10.22h15.83v7.3H322.75a5.6,5.6,0,0,0-3.28.62,2.7,2.7,0,0,0-1.18,2.47,2.61,2.61,0,0,0,1.77,2.57,9.22,9.22,0,0,0,3.12.38l4.4.12c4.43.11,7.39.89,9.19,2.77a4.3,4.3,0,0,1,.76.85l-.28-.36a11.28,11.28,0,0,1-.65,14.31ZM142.21,153.53l8.87,10-9.26,10.07H121.89v-6.83h17.8v-7h-17.8v-6.24Zm19.31,10.13L174,150.12v27.53Zm36-5.92c0,3-1.94,4.54-5.05,4.54H182v-8.75h10.58c2.92,0,4.95,1.21,4.95,4.21Zm36.17-.5a3.71,3.71,0,0,1-1.68,3.3,7.66,7.66,0,0,1-4,.71H218.2v-7.72h10a7.88,7.88,0,0,1,3.87.62,3.26,3.26,0,0,1,1.68,3.09Zm0,0"/></svg>