<svg id="Camada_1" data-name="Camada 1" xmlns="http://www.w3.org/2000/svg" viewBox="0 0 384 266"><defs><style>.cls-1{fill:#00529e;}.cls-2{fill:#fff;}</style></defs><rect class="cls-1" width="384" height="266" rx="23.5"/><path class="cls-2" d="M205.73,165.93c30.6.15,58.53-25,58.53-55.48,0-33.39-27.94-56.46-58.53-56.45H179.4c-31,0-56.45,23.07-56.45,56.45,0,30.54,25.49,55.63,56.45,55.48Zm0,0"/><path class="cls-1" d="M191.15,140.18V79.55a32.46,32.46,0,0,1,0,60.63m-44.09-30.32A32.52,32.52,0,0,1,167.9,79.55v60.61a32.5,32.5,0,0,1-20.84-30.3m32.46-51.24a51.24,51.24,0,1,0,51.24,51.24,51.23,51.23,0,0,0-51.24-51.24"/><path class="cls-2" d="M65.72,204.12c0,4.56,3.25,5.09,6.15,5.09,12.79,0,17-9.64,17-18.46,0-11.07-7.1-19.05-18.52-19.05-2.44,0-3.55.17-4.62.24v32.18Zm-5.81-27.75c0-5.33-2.77-5-5.43-5V169.8c2.31.11,4.67.11,7,.11,2.48,0,5.86-.11,10.24-.11C87,169.8,95.36,180,95.36,190.51c0,5.87-3.43,20.6-24.38,20.6-3,0-5.8-.12-8.58-.12s-5.26.06-7.92.12v-1.54c3.55-.36,5.27-.47,5.43-4.5Zm0,0"/><path class="cls-2" d="M103.77,175a2.91,2.91,0,0,1,0-5.81,2.9,2.9,0,0,1,2.9,2.85,3,3,0,0,1-2.9,3m-6.34,34.62h1.13c1.65,0,2.84,0,2.84-2v-16c0-2.6-.89-3-3.08-4.13v-.95c2.78-.83,6.1-2,6.33-2.13a2.08,2.08,0,0,1,1.07-.3c.29,0,.41.35.41.83v22.72c0,2,1.31,2,3,2h1v1.53c-2,0-4.09-.11-6.21-.11s-4.26.06-6.46.11Zm0,0"/><path class="cls-2" d="M115.72,191.93c0-2.19-.66-2.78-3.43-3.9V186.9a78.72,78.72,0,0,0,7.81-2.84c.18,0,.34.12.34.59v3.85c3.38-2.43,6.28-4.44,10.25-4.44,5,0,6.81,3.67,6.81,8.29v15.26c0,2,1.3,2,2.95,2h1.07v1.54c-2.08,0-4.14-.12-6.27-.12s-4.27.06-6.39.12v-1.54h1.06c1.66,0,2.84,0,2.84-2V192.29c0-3.38-2.07-5-5.44-5-1.9,0-4.91,1.53-6.88,2.84v17.51c0,2,1.31,2,3,2h1.07v1.54c-2.07,0-4.14-.12-6.28-.12s-4.26.06-6.39.12v-1.54h1.08c1.66,0,2.83,0,2.83-2V191.93Zm0,0"/><path class="cls-2" d="M156.5,192.88c1.48,0,1.64-.77,1.64-1.48,0-3-1.83-5.45-5.14-5.45-3.61,0-6.09,2.66-6.8,6.93ZM146,194.77a14.78,14.78,0,0,0,0,3.44c.35,5.62,4,10.23,8.7,10.23,3.26,0,5.8-1.78,8-4l.82.83c-2.72,3.6-6.09,6.68-10.94,6.68-9.41,0-11.31-9.11-11.31-12.9,0-11.6,7.81-15,11.95-15,4.8,0,10,3,10,9.29a9.57,9.57,0,0,1,0,1.07l-.55.35Zm0,0"/><path class="cls-2" d="M164.6,209.57h1.6c1.64,0,2.84,0,2.84-2V191c0-1.83-2.2-2.19-3.09-2.66v-.88c4.33-1.84,6.69-3.38,7.24-3.38.34,0,.52.18.52.77v5.32h.12c1.48-2.3,4-6.09,7.58-6.09a3.23,3.23,0,0,1,3.37,3.13,2.89,2.89,0,0,1-2.78,3c-1.85,0-1.85-1.44-3.91-1.44a5,5,0,0,0-4.32,4.92v13.9c0,2,1.18,2,2.84,2h3.31v1.53c-3.25-.06-5.73-.12-8.28-.12s-4.91.06-7,.12Zm0,0"/><path class="cls-2" d="M187.39,202.88c.77,3.9,3.13,7.22,7.45,7.22,3.49,0,4.79-2.13,4.79-4.21,0-7-12.9-4.72-12.9-14.25,0-3.31,2.67-7.58,9.17-7.58a15.7,15.7,0,0,1,6.76,1.72l.41,6h-1.36c-.59-3.73-2.66-5.85-6.45-5.85-2.37,0-4.62,1.35-4.62,3.9,0,6.93,13.73,4.79,13.73,14.08,0,3.9-3.14,8.05-10.18,8.05a15.57,15.57,0,0,1-7.21-2l-.66-6.8Zm0,0"/><path class="cls-2" d="M257.8,180.51h-1.47c-1.13-6.92-6-9.7-12.66-9.7-6.82,0-16.7,4.55-16.7,18.75,0,12,8.52,20.54,17.64,20.54,5.86,0,10.71-4,11.89-10.23l1.37.34-1.37,8.64C254,210.4,247.33,212,243.42,212c-13.85,0-22.59-8.94-22.59-22.25,0-12.14,10.82-20.84,22.42-20.84,4.79,0,9.41,1.55,14,3.15Zm0,0"/><path class="cls-2" d="M259.94,209.57h1.11c1.67,0,2.85,0,2.85-2v-33c0-3.85-.88-4-3.14-4.62v-.95a36.92,36.92,0,0,0,6.1-2.55,6.86,6.86,0,0,1,1.3-.65c.35,0,.47.36.47.84v40.88c0,2,1.31,2,3,2h1v1.53c-2,0-4.08-.11-6.2-.11s-4.26.06-6.45.11Zm0,0"/><path class="cls-2" d="M297.93,207.85c0,1.07.65,1.12,1.65,1.12.71,0,1.59-.06,2.36-.06v1.25a60,60,0,0,0-8.52,1.84l-.3-.18V207c-3.54,2.89-6.26,5-10.48,5-3.19,0-6.5-2.08-6.5-7V189.81c0-1.55-.23-3-3.54-3.32v-1.13c2.13-.05,6.85-.41,7.63-.41s.66.41.66,1.72v15.26c0,1.78,0,6.87,5.14,6.87,2,0,4.67-1.54,7.15-3.61V189.26c0-1.17-2.84-1.82-5-2.41v-1.07c5.32-.36,8.64-.83,9.23-.83s.48.41.48,1.07v21.82h0Zm0,0"/><path class="cls-2" d="M309.7,204.42c0,2.24,2.13,6,6.1,6,6.33,0,9-6.22,9-11.49,0-6.39-4.85-11.71-9.46-11.71-2.2,0-4,1.42-5.63,2.78Zm0-16.09c2.37-2,5.57-4.27,8.82-4.27,6.87,0,11,6,11,12.43,0,7.75-5.68,15.51-14.14,15.51a17.66,17.66,0,0,1-8.23-2.07l-1.77,1.35-1.23-.65A70.56,70.56,0,0,0,305,200.1V174.66c0-3.85-.89-4-3.14-4.62v-.95a37.91,37.91,0,0,0,6.1-2.54,6.26,6.26,0,0,1,1.3-.65c.36,0,.47.34.47.83Zm0,0"/></svg>