<svg id="Camada_1" data-name="Camada 1" xmlns="http://www.w3.org/2000/svg" viewBox="0 0 384 266"><defs><style>.cls-1{fill:#f3f2f2;}.cls-2{fill:#0f549d;}.cls-3{fill:#b41f36;}.cls-4{fill:#329947;}</style></defs><rect class="cls-1" width="384" height="266" rx="23.5"/><path class="cls-2" d="M72.23,223.84h43.85c15.42,0,33.24-14.45,33.24-33.24V42.16H106.93c-19.76,0-34.7,12.53-34.7,34.21Zm0,0"/><path class="cls-3" d="M159,223.84h43.84c15.42,0,33.25-14.45,33.25-33.24V42.16h-42.4C173.9,42.16,159,54.69,159,76.37Zm0,0"/><path class="cls-4" d="M246.89,223.84h43.85c15.42,0,33.25-14.45,33.25-33.24V42.16h-42.4c-19.75,0-34.7,12.53-34.7,34.21V223.84Zm0,0"/><path class="cls-1" d="M72.05,138.26H60c3.38,13.5,19.28,24.1,37.11,24.1,16.38,0,38.54-9.16,38.54-26.51V104.54H108.2v31.31c0,9.16-7.23,16.39-17.35,16.39-9.15,0-17.35-5.78-18.8-14Zm0,0"/><path class="cls-1" d="M312.47,144.53c0,7.22-6.26,13-14.45,13H237.3v-53H298a13.5,13.5,0,0,1,0,27c8.19,0,14.45,5.78,14.45,13Zm-52-15.9h18.79a9.16,9.16,0,0,0,0-18.32H260.43Zm19.28,23.12a9.16,9.16,0,0,0,0-18.31H260.43v18.31Zm0,0"/><path class="cls-1" d="M222.78,148.38v9.16H176.52a26.5,26.5,0,0,1,0-53h46.26v9.64c-11.08-2.41-21.69-3.86-27-3.86a20.72,20.72,0,0,0,0,41.44,144.51,144.51,0,0,0,27-3.38Zm0,0"/></svg>