<svg id="Camada_1" data-name="Camada 1" xmlns="http://www.w3.org/2000/svg" viewBox="0 0 384 266"><defs><style>.cls-1{fill:#f3f2f2;}.cls-2{fill:#0099df;}.cls-3{fill:#6c6bbd;}.cls-4{fill:#eb001b;}.cls-5{fill:#231f20;}</style></defs><rect class="cls-1" width="384" height="266" rx="23.5"/><path class="cls-2" d="M321.86,162.55v-3.17H321l-1,2.18-.95-2.18h-.83v3.17h.58v-2.39l.9,2.06h.61l.89-2.07v2.4Zm-5.25,0v-2.63h1.06v-.54H315v.54H316v2.63Z"/><path class="cls-3" d="M227.79,176.2H156.2V47.53h71.59Z"/><path class="cls-4" d="M160.78,111.86A81.73,81.73,0,0,1,192,47.52a81.84,81.84,0,1,0,0,128.67,81.69,81.69,0,0,1-31.26-64.33"/><path class="cls-2" d="M324.35,111.86A81.82,81.82,0,0,1,192,176.19a81.83,81.83,0,0,0,0-128.67,81.83,81.83,0,0,1,132.39,64.34"/><path class="cls-5" d="M251.93,212.54a10.11,10.11,0,0,1,3.37.59l-1.46,4.45a7.67,7.67,0,0,0-3-.54c-3.09,0-4.64,2-4.64,5.58v12.19h-4.73V213.08h4.69v2.64a6.39,6.39,0,0,1,5.72-3.18m-17.47,4.86h-7.72v9.82c0,2.18.77,3.64,3.13,3.64a8.78,8.78,0,0,0,4.18-1.23l1.37,4a11.09,11.09,0,0,1-5.91,1.69c-5.59,0-7.54-3-7.54-8.05V217.4h-4.42v-4.32H222v-6.59h4.77v6.59h7.72ZM174,222c.51-3.14,2.41-5.28,5.78-5.28,3,0,5,1.91,5.5,5.28ZM190.15,224c-.05-6.78-4.23-11.41-10.32-11.41-6.37,0-10.82,4.63-10.82,11.41s4.64,11.4,11.14,11.4a13.25,13.25,0,0,0,8.91-3l-2.33-3.5a10.34,10.34,0,0,1-6.31,2.27c-3,0-5.82-1.41-6.5-5.32h16.13c0-.59.1-1.18.1-1.81m20.77-5.32a14,14,0,0,0-6.77-1.87c-2.59,0-4.14,1-4.14,2.55s1.64,1.86,3.68,2.13l2.23.32c4.73.69,7.59,2.69,7.59,6.5,0,4.14-3.64,7.1-9.91,7.1a15.73,15.73,0,0,1-9.41-2.82l2.23-3.69a11.57,11.57,0,0,0,7.23,2.28c3.22,0,4.95-1,4.95-2.64,0-1.22-1.23-1.91-3.82-2.27l-2.22-.32c-4.87-.68-7.51-2.86-7.51-6.41,0-4.32,3.55-7,9-7a16.21,16.21,0,0,1,8.86,2.27Zm58.29-1.6a7.14,7.14,0,0,0-2.71.51,6.42,6.42,0,0,0-2.16,1.43,6.82,6.82,0,0,0-1.44,2.21,7.48,7.48,0,0,0-.52,2.84,7.39,7.39,0,0,0,.52,2.83,6.76,6.76,0,0,0,1.44,2.22,6.42,6.42,0,0,0,2.16,1.43,7.46,7.46,0,0,0,5.42,0,6.5,6.5,0,0,0,2.18-1.43,6.78,6.78,0,0,0,1.45-2.22,7.39,7.39,0,0,0,.52-2.83,7.48,7.48,0,0,0-.52-2.84A6.84,6.84,0,0,0,274.1,219a6.5,6.5,0,0,0-2.18-1.43,7.11,7.11,0,0,0-2.71-.51m0-4.49a12.15,12.15,0,0,1,4.68.88,11.42,11.42,0,0,1,3.73,2.41,11,11,0,0,1,2.46,3.63,12.13,12.13,0,0,1,0,9.12,11,11,0,0,1-2.46,3.63,11.44,11.44,0,0,1-3.73,2.42,13,13,0,0,1-9.36,0,11.25,11.25,0,0,1-3.71-2.42,11.13,11.13,0,0,1-2.45-3.63,12.13,12.13,0,0,1,0-9.12,11.05,11.05,0,0,1,6.16-6,12.19,12.19,0,0,1,4.68-.88M146.35,224c0-3.82,2.5-7,6.59-7,3.91,0,6.54,3,6.54,7s-2.63,7-6.54,7c-4.09,0-6.59-3.14-6.59-7m17.59,0V213.08h-4.73v2.64a8.22,8.22,0,0,0-6.86-3.18c-6.09,0-10.86,4.77-10.86,11.41s4.77,11.41,10.86,11.41a8.23,8.23,0,0,0,6.86-3.19v2.64h4.73Zm-26.63,10.86V221.17c0-5.13-3.28-8.59-8.55-8.63a8.37,8.37,0,0,0-7.63,3.86,8,8,0,0,0-7.19-3.86,7.19,7.19,0,0,0-6.36,3.22v-2.68h-4.73v21.73h4.77v-12c0-3.78,2.1-5.78,5.32-5.78s4.73,2,4.73,5.73v12.09h4.77v-12c0-3.78,2.19-5.78,5.32-5.78s4.77,2,4.77,5.73v12.09Z"/><path class="cls-5" d="M286.06,233.18v.54h.5a.47.47,0,0,0,.26-.07.23.23,0,0,0,.11-.2.22.22,0,0,0-.11-.2.4.4,0,0,0-.26-.07Zm.5-.37a.87.87,0,0,1,.59.17.54.54,0,0,1,.21.47.56.56,0,0,1-.16.41.81.81,0,0,1-.48.19l.66.76h-.51l-.61-.75h-.2v.75h-.42v-2Zm-.13,2.69a1.71,1.71,0,0,0,.65-.13,1.77,1.77,0,0,0,.53-.36,1.7,1.7,0,0,0,.36-.54,1.72,1.72,0,0,0,0-1.31,1.82,1.82,0,0,0-.36-.54,1.58,1.58,0,0,0-.53-.35,1.54,1.54,0,0,0-.65-.13,1.62,1.62,0,0,0-.66.13,1.53,1.53,0,0,0-.54.35,1.62,1.62,0,0,0-.35.54,1.72,1.72,0,0,0,0,1.31,1.53,1.53,0,0,0,.35.54,1.7,1.7,0,0,0,.54.36,1.8,1.8,0,0,0,.66.13m0-3.84a2,2,0,0,1,.85.17,2.12,2.12,0,0,1,.71.46,2.28,2.28,0,0,1,.47.69,2.14,2.14,0,0,1,0,1.67,2.36,2.36,0,0,1-.47.68,2.15,2.15,0,0,1-.71.47,2,2,0,0,1-.85.17,2.19,2.19,0,0,1-1.57-.64,2.18,2.18,0,0,1-.47-.68,2.14,2.14,0,0,1,.47-2.36,2.08,2.08,0,0,1,.7-.46,2.11,2.11,0,0,1,.87-.17"/></svg>