<svg id="Camada_1" data-name="Camada 1" xmlns="http://www.w3.org/2000/svg" viewBox="0 0 384 266"><defs><style>.cls-1{fill:#f3f2f2;}.cls-2{fill:#231f20;}.cls-3{fill:#ff5f00;}.cls-4{fill:#eb001b;}.cls-5{fill:#f79e1b;}</style></defs><rect class="cls-1" width="384" height="266" rx="23.5"/><g id="Layer_2" data-name="Layer 2"><g id="Layer_1-2" data-name="Layer 1-2"><path id="path10" class="cls-2" d="M108.73,233.7V220.21a8,8,0,0,0-7.43-8.53,7,7,0,0,0-1,0,8.31,8.31,0,0,0-7.55,3.82,7.93,7.93,0,0,0-7.11-3.82,7.12,7.12,0,0,0-6.29,3.19v-2.65H74.66V233.7h4.72V221.88a5,5,0,0,1,4.3-5.67,4.35,4.35,0,0,1,.95,0c3.11,0,4.68,2,4.68,5.66v12H94V221.88a5.06,5.06,0,0,1,4.36-5.67,4.49,4.49,0,0,1,.9,0c3.19,0,4.72,2,4.72,5.66v12Zm69.83-21.49h-7.69v-6.52h-4.72v6.52h-4.27v4.27h4.36v9.89c0,5,1.93,8,7.46,8a11,11,0,0,0,5.84-1.67l-1.34-4a8.67,8.67,0,0,1-4.14,1.22c-2.25,0-3.1-1.44-3.1-3.6v-9.8h7.64Zm39.87-.54a6.33,6.33,0,0,0-5.67,3.15v-2.61h-4.63V233.7h4.68v-12c0-3.55,1.53-5.53,4.49-5.53a7.68,7.68,0,0,1,2.92.54l1.44-4.49a10.18,10.18,0,0,0-3.32-.59Zm-60.28,2.25a16.17,16.17,0,0,0-8.77-2.25c-5.43,0-9,2.61-9,6.88,0,3.51,2.61,5.66,7.42,6.34l2.25.31c2.56.36,3.77,1,3.77,2.25,0,1.66-1.7,2.61-4.9,2.61a11.46,11.46,0,0,1-7.14-2.25l-2.25,3.64a15.51,15.51,0,0,0,9.3,2.79c6.21,0,9.8-2.92,9.8-7s-2.83-5.76-7.5-6.43l-2.25-.32c-2-.27-3.64-.67-3.64-2.11s1.53-2.52,4.09-2.52a13.87,13.87,0,0,1,6.74,1.85Zm125.21-2.25a6.33,6.33,0,0,0-5.67,3.15v-2.61h-4.63V233.7h4.68v-12c0-3.55,1.52-5.53,4.49-5.53a7.68,7.68,0,0,1,2.92.54l1.44-4.49a10.18,10.18,0,0,0-3.32-.59Zm-60.24,11.24a10.86,10.86,0,0,0,10.45,11.25c.34,0,.68,0,1,0a11.27,11.27,0,0,0,7.73-2.56l-2.25-3.78a9.45,9.45,0,0,1-5.62,1.93,6.9,6.9,0,0,1,0-13.75,9.45,9.45,0,0,1,5.62,1.93l2.25-3.77a11.23,11.23,0,0,0-7.73-2.57,10.86,10.86,0,0,0-11.46,10.23c0,.33,0,.67,0,1Zm43.78,0v-10.7h-4.67v2.61a8.18,8.18,0,0,0-6.74-3.15,11.24,11.24,0,0,0,0,22.48,8.18,8.18,0,0,0,6.74-3.15v2.61h4.67Zm-17.39,0a6.38,6.38,0,1,1,0,.51C249.49,223.25,249.5,223.08,249.51,222.91ZM193.1,211.67a11.24,11.24,0,0,0,.31,22.48,13.09,13.09,0,0,0,8.92-2.92l-2.24-3.47a10.19,10.19,0,0,1-6.25,2.25,6,6,0,0,1-6.43-5.26h16V223c0-6.75-4.18-11.24-10.21-11.24Zm0,4.18a5.34,5.34,0,0,1,5.44,5.22H187.3a5.53,5.53,0,0,1,5.71-5.22ZM310.21,223V203.58h-4.49v11.24a8.19,8.19,0,0,0-6.75-3.15,11.24,11.24,0,0,0,0,22.48,8.19,8.19,0,0,0,6.75-3.15v2.61h4.49Zm7.8,7.61a2.25,2.25,0,0,1,.85.16,2.33,2.33,0,0,1,.7.45,2,2,0,0,1,.47.68,2.07,2.07,0,0,1-.47,2.33,2.15,2.15,0,0,1-.7.45,2,2,0,0,1-.85.18,2.22,2.22,0,0,1-2-1.3,2.08,2.08,0,0,1,0-1.66,2,2,0,0,1,.47-.68,2.33,2.33,0,0,1,.7-.45,2.38,2.38,0,0,1,.92-.16Zm0,3.8a1.57,1.57,0,0,0,.65-.13,1.73,1.73,0,0,0,.52-.36,1.67,1.67,0,0,0,0-2.25,1.73,1.73,0,0,0-.52-.36,1.57,1.57,0,0,0-.65-.13,1.69,1.69,0,0,0-1.19.49,1.67,1.67,0,0,0,0,2.25,1.82,1.82,0,0,0,.54.36,1.62,1.62,0,0,0,.72.13Zm.14-2.67a.87.87,0,0,1,.58.18.56.56,0,0,1,.2.47.53.53,0,0,1-.15.4.87.87,0,0,1-.48.21l.65.74h-.51l-.61-.74h-.2v.74h-.43v-2Zm-.5.38v.54h.5a.42.42,0,0,0,.27,0,.23.23,0,0,0,0-.2.26.26,0,0,0,0-.21.61.61,0,0,0-.27,0ZM292.93,223a6.49,6.49,0,1,1,0,.5A4.13,4.13,0,0,1,292.93,223Zm-157.84,0V212.21h-4.67v2.61a8.2,8.2,0,0,0-6.75-3.15,11.24,11.24,0,0,0,0,22.48,8.2,8.2,0,0,0,6.75-3.15v2.61h4.67Zm-17.4,0a6.07,6.07,0,1,1,0,.55,5,5,0,0,1,0-.55Z"/><g id="_Group_" data-name=" Group "><rect id="rect12" class="cls-3" x="156.6" y="48.49" width="70.8" height="127.23"/><path id="_Path_" data-name=" Path " class="cls-4" d="M161.09,112.11A80.77,80.77,0,0,1,192,48.49a80.91,80.91,0,1,0,0,127.22A80.76,80.76,0,0,1,161.09,112.11Z"/><path id="path15" class="cls-5" d="M322.91,112.11A80.9,80.9,0,0,1,192,175.71a80.9,80.9,0,0,0,0-127.22,80.9,80.9,0,0,1,130.91,63.6Z"/><path id="path17" class="cls-5" d="M315.18,162.23v-2.61h1.06v-.54h-2.68v.54h1.15v2.61Zm5.19,0v-3.15h-.81l-.94,2.25-.95-2.25H317v3.15h.59v-2.36l.88,2h.6l.88-2v2.38Z"/></g></g></g></svg>