<svg id="Camada_1" data-name="Camada 1" xmlns="http://www.w3.org/2000/svg" viewBox="0 0 384 266"><defs><style>.cls-1{fill:#f3f2f2;}.cls-2{fill:#293688;}.cls-3{fill:#f7981d;}</style></defs><rect class="cls-1" width="384" height="266" rx="23.5"/><path class="cls-2" d="M149.45,177.72l15.14-89.43h24.52L174,177.72Zm0,0"/><path class="cls-2" d="M261.26,90.6a63.79,63.79,0,0,0-22-3.75C215,86.85,198,99,197.83,116.36c-.13,12.85,12.18,20,21.49,24.3,9.54,4.37,12.75,7.18,12.71,11.09-.06,6-7.63,8.73-14.68,8.73-9.81,0-15-1.35-23.08-4.7l-3.16-1.42-3.44,20c5.72,2.5,16.32,4.66,27.32,4.77,25.76,0,42.5-12,42.69-30.55.1-10.17-6.44-17.91-20.59-24.3-8.57-4.13-13.82-6.89-13.76-11.08,0-3.72,4.44-7.69,14-7.69A45.45,45.45,0,0,1,255.73,109l2.19,1Zm0,0"/><path class="cls-2" d="M303.06,88.29c-5.88,0-10.13,1.8-12.71,7.62L254,177.72h26L285,164h31l2.88,13.71H342L321.81,88.29Zm-11.15,57.83c2-5.15,9.77-25,9.77-25-.14.23,2-5.18,3.25-8.54l1.66,7.71s4.69,21.35,5.68,25.82Zm0,0"/><path class="cls-2" d="M104.74,149.59l-2.16-12.26C98.1,123,84.22,107.58,68.66,99.83l21.66,77.89h26l38.94-89.43H129.27Zm0,0"/><path class="cls-3" d="M42,88.29v1.45c30.77,7.4,52.12,26.1,60.58,47.59L93.69,95.92c-1.48-5.66-6-7.43-11.3-7.63Zm0,0"/></svg>