<svg id="Camada_1" data-name="Camada 1" xmlns="http://www.w3.org/2000/svg" viewBox="0 0 132.12 48"><defs><style>.cls-1{fill:#ebac41;}.cls-2{fill:#73cb51;}.cls-3{fill:#7920fa;}</style></defs><path class="cls-1" d="M17.58,48a4.9,4.9,0,0,1-2.93-1L3.49,38.81A8.56,8.56,0,0,1,0,31.92V13.32l1.4-.68A2.36,2.36,0,0,1,4,13H4L17.58,25.35l15-13.57,1.45.59a2.37,2.37,0,0,1,1.4,2.17V31.67A8.61,8.61,0,0,1,32,38.55L20.52,47A4.93,4.93,0,0,1,17.58,48Zm-13-28.23V31.92A4,4,0,0,0,6.2,35.13l11.16,8.21a.36.36,0,0,0,.44,0l11.46-8.47a4,4,0,0,0,1.62-3.2V19.51L20.19,29.16a3.87,3.87,0,0,1-5.22,0Z"/><polygon class="cls-2" points="17.61 20 5.32 9.13 8.35 5.7 17.56 13.84 32.77 0 35.85 3.39 17.61 20"/><path class="cls-3" d="M46,12.35C46,8.7,48.72,6.1,52.53,6.1a6,6,0,0,1,6.25,5.23h-4a2.4,2.4,0,0,0-2.3-1.59,2.44,2.44,0,0,0-2.44,2.63A2.47,2.47,0,0,0,52.52,15a2.37,2.37,0,0,0,2.31-1.73h4a6.12,6.12,0,0,1-6.31,5.37A6.2,6.2,0,0,1,46,12.35Z"/><path class="cls-3" d="M59.9,12.37c0-3.66,2.77-6.29,6.62-6.29s6.62,2.63,6.62,6.29-2.78,6.29-6.62,6.29S59.9,16,59.9,12.37Zm9.17,0a2.55,2.55,0,1,0-5.09,0,2.55,2.55,0,1,0,5.09,0Z"/><path class="cls-3" d="M93.13,10.87v7.4H89.07v-6.9c0-1.23-.45-1.83-1.32-1.83-1.12,0-1.69.77-1.69,2.26v6.47h-4v-6.9c0-1.19-.45-1.83-1.3-1.83-1.1,0-1.71.79-1.71,2.26v6.47H75V6.47h2.86l.57,1.27a4.56,4.56,0,0,1,3.46-1.62A4,4,0,0,1,85.3,7.86a4.6,4.6,0,0,1,3.63-1.74C91.45,6.12,93.13,8.09,93.13,10.87Z"/><path class="cls-3" d="M108.65,12.37a6,6,0,0,1-6.19,6.3,5.57,5.57,0,0,1-2.88-.78v4.65h-4V6.47h2.77l.51.94a5.47,5.47,0,0,1,3.62-1.33A6,6,0,0,1,108.65,12.37Zm-4.09,0a2.65,2.65,0,1,0-5.29,0,2.65,2.65,0,1,0,5.29,0Z"/><path class="cls-3" d="M118.21,6.41v3.72h-1.58c-1.44,0-2,.63-2,2.14v6h-4.07V6.47h2.73l.63,1.31a4,4,0,0,1,3.25-1.37Z"/><path class="cls-3" d="M132.12,6.46v11.8H129l-.35-.83a5.61,5.61,0,0,1-3.56,1.23,6,6,0,0,1-6.19-6.3,6,6,0,0,1,6.19-6.26,5.54,5.54,0,0,1,3.6,1.27l.42-.91Zm-3.87,5.91a2.64,2.64,0,1,0-5.28,0,2.64,2.64,0,1,0,5.28,0Z"/><path class="cls-3" d="M58.65,29.72,53.9,41.52H50.22l-4.81-11.8h4.46l2.23,7,2.2-7Z"/><path class="cls-3" d="M72,29.7V41.51H68.85l-.34-.84a5.59,5.59,0,0,1-3.57,1.24,6,6,0,0,1-6.19-6.31,6,6,0,0,1,6.19-6.25,5.57,5.57,0,0,1,3.61,1.27L69,29.7Zm-3.87,5.91a2.64,2.64,0,1,0-2.64,2.7A2.59,2.59,0,0,0,68.13,35.61Zm-1.28-7.2h-3l1.24-3.62h4.15Z"/><path class="cls-3" d="M74.57,25.45h4.06V41.52H74.57Z"/><path class="cls-3" d="M81.19,29.72h4.07v11.8H81.19Zm0-4.93h4v3.45h-4Z"/><path class="cls-3" d="M100.29,25.45V41.52h-3l-.38-.88a5.46,5.46,0,0,1-3.56,1.28,6,6,0,0,1-6.21-6.3,6,6,0,0,1,6.21-6.29,5.5,5.5,0,0,1,2.93.82v-4.7ZM96.52,35.62a2.64,2.64,0,1,0-2.64,2.7A2.6,2.6,0,0,0,96.52,35.62Z"/><path class="cls-3" d="M115.41,29.7V41.51h-3.14l-.35-.84a5.56,5.56,0,0,1-3.56,1.24,6,6,0,0,1-6.19-6.31,6,6,0,0,1,6.19-6.25,5.54,5.54,0,0,1,3.6,1.27l.42-.92Zm-3.87,5.91a2.64,2.64,0,1,0-2.64,2.7A2.59,2.59,0,0,0,111.54,35.61Z"/></svg>